M48
;DRILL file {PCBnew (20090107-unstable)} date 2/19/2009 11:49:28 AM
;FORMAT={-.-/ absolute / inch / decimal}
R,T
VER,1
FMAT,2
INCH,TZ
TCST,OFF
ICI,OFF
ATC,ON
T1C0.025
T2C0.032
T3C0.040
T4C0.042
T5C0.045
T6C0.055
T7C0.059
T8C0.120
T9C0.160
%
M47
G05
M72
T1
X0.750Y2.850
X0.850Y1.275
X0.950Y0.550
X1.000Y2.450
X1.000Y2.350
X1.000Y2.050
X1.000Y1.375
X1.038Y2.087
X1.075Y2.125
X1.325Y2.125
X1.362Y2.087
X1.400Y2.675
X1.400Y2.450
X1.400Y2.050
X1.650Y3.250
X1.750Y2.250
X1.925Y1.275
X2.050Y2.250
X2.150Y3.250
X2.250Y1.900
X2.325Y1.075
X2.400Y2.450
X2.400Y2.350
X2.400Y2.050
X2.400Y1.375
X2.438Y2.087
X2.475Y2.125
X2.725Y2.125
X2.763Y2.087
X2.800Y2.675
X2.800Y2.450
X2.800Y2.050
X3.050Y3.250
X3.150Y2.250
X3.325Y0.900
X3.400Y3.000
X3.450Y2.250
X3.550Y3.250
X3.650Y1.900
X3.700Y1.225
X3.700Y1.050
X3.800Y2.450
X3.800Y2.350
X3.800Y2.050
X3.800Y1.375
X3.837Y2.087
X3.875Y2.125
X4.125Y2.125
X4.162Y2.087
X4.200Y2.675
X4.200Y2.450
X4.200Y2.050
X4.450Y3.250
X4.550Y2.250
X4.850Y2.250
X4.875Y1.375
X4.950Y3.250
X5.050Y1.900
X5.100Y1.275
X5.200Y2.450
X5.200Y2.350
X5.200Y2.050
X5.200Y1.375
X5.237Y2.087
X5.275Y2.125
X5.525Y2.125
X5.563Y2.087
X5.600Y2.675
X5.600Y2.450
X5.600Y2.050
X5.850Y2.850
X6.050Y1.275
T2
X0.600Y1.250
X0.600Y1.150
X0.600Y1.050
X0.600Y0.950
X0.600Y0.850
X0.600Y0.750
X0.950Y0.900
X1.050Y0.900
X1.150Y0.900
X1.250Y0.900
X1.350Y0.900
X1.450Y0.900
X1.550Y0.900
X1.550Y0.600
X1.650Y0.900
X1.650Y0.600
X1.700Y1.400
X1.700Y1.100
X1.750Y0.900
X1.750Y0.600
X1.800Y1.400
X1.800Y1.100
X1.850Y0.900
X1.850Y0.600
X1.950Y0.900
X1.950Y0.600
X2.050Y0.900
X2.050Y0.600
X2.150Y0.900
X2.150Y0.600
X2.250Y0.900
X2.250Y0.600
X2.350Y0.900
X2.350Y0.600
X2.450Y0.900
X2.450Y0.600
X3.100Y1.400
X3.100Y1.100
X3.200Y1.400
X3.200Y1.100
X4.150Y0.750
X4.250Y0.750
X4.250Y0.650
X4.475Y0.625
X4.475Y0.525
X4.500Y1.400
X4.500Y1.100
X4.575Y0.525
X4.600Y1.400
X4.600Y1.100
X5.900Y1.400
X5.900Y1.100
X6.000Y1.400
X6.000Y1.100
X6.200Y1.475
X6.200Y1.375
X6.370Y1.790
X6.470Y1.790
T3
X0.300Y2.650
X0.300Y2.450
X1.175Y1.250
X1.195Y0.450
X1.250Y0.350
X1.305Y0.450
X1.350Y1.250
X1.360Y0.350
X1.415Y0.450
X1.468Y0.350
X1.520Y0.450
X1.550Y1.350
X1.550Y1.150
X1.574Y0.350
X1.630Y0.450
X1.686Y0.350
X1.740Y0.450
X1.794Y0.350
X1.850Y0.450
X1.900Y3.425
X1.900Y3.225
X1.902Y0.350
X1.955Y0.450
X2.012Y0.350
X2.065Y0.450
X2.120Y0.350
X2.175Y0.450
X2.228Y0.350
X2.285Y0.450
X2.338Y0.350
X2.390Y0.450
X2.438Y0.350
X2.500Y0.450
X2.575Y1.250
X2.750Y1.250
X2.950Y1.350
X2.950Y1.150
X3.975Y1.250
X4.150Y1.250
X4.350Y1.350
X4.350Y1.150
X4.700Y3.400
X4.700Y3.200
X5.375Y1.250
X5.550Y1.250
X5.750Y1.350
X5.750Y1.150
X6.300Y2.650
X6.300Y2.450
T4
X6.000Y1.700
X6.100Y1.700
X6.200Y1.700
X6.250Y2.200
X6.250Y2.100
X6.250Y2.000
X6.450Y2.200
X6.450Y2.100
X6.450Y2.000
X6.450Y1.575
X6.450Y1.475
X6.450Y1.375
T5
X0.650Y2.550
X0.650Y1.950
X1.750Y2.550
X1.750Y1.950
X2.050Y2.550
X2.050Y1.950
X3.150Y2.550
X3.150Y1.950
X3.450Y2.550
X3.450Y1.950
X4.550Y2.550
X4.550Y1.950
X4.850Y2.550
X4.850Y1.950
X5.950Y2.550
X5.950Y1.950
T6
X0.300Y2.200
X0.300Y2.000
X0.300Y1.800
X0.300Y1.600
X0.300Y1.400
X0.300Y1.200
X0.300Y1.000
X0.300Y0.800
X0.900Y3.250
X1.100Y3.250
X1.300Y3.250
X1.500Y3.250
X2.300Y3.250
X2.500Y3.250
X2.700Y3.250
X2.900Y3.250
X3.200Y3.250
X3.400Y3.250
X3.700Y3.250
X3.900Y3.250
X4.100Y3.250
X4.300Y3.250
X5.100Y3.250
X5.300Y3.250
X5.500Y3.250
X5.700Y3.250
X6.350Y1.150
X6.350Y0.950
X6.350Y0.750
T7
X5.115Y0.550
X5.195Y0.795
X5.195Y0.315
X5.665Y0.315
X5.670Y0.795
T8
X0.925Y0.350
X2.775Y0.350
T9
X0.400Y3.150
X0.400Y0.350
X1.900Y2.750
X1.900Y1.750
X3.300Y2.750
X3.300Y1.750
X3.300Y0.350
X4.700Y2.750
X4.700Y1.750
X6.200Y3.150
X6.200Y0.350
T0
M30
